<svg xmlns="http://www.w3.org/2000/svg" version="1.1" xmlns:xlink="http://www.w3.org/1999/xlink" xmlns:svgjs="http://svgjs.dev/svgjs" width="1500" height="1500" viewBox="0 0 1500 1500"><rect width="1500" height="1500" fill="#051726"></rect><g transform="matrix(0.6666666666666666,0,0,0.6666666666666666,249.76528289139094,258.3983805668017)"><svg viewBox="0 0 251 247" data-background-color="#051726" preserveAspectRatio="xMidYMid meet" height="1476" width="1500" xmlns="http://www.w3.org/2000/svg" xmlns:xlink="http://www.w3.org/1999/xlink"><g id="tight-bounds" transform="matrix(1,0,0,1,0.058913994260876734,-0.09999999999999432)"><svg viewBox="0 0 250.88217201147827 247.2" height="247.2" width="250.88217201147827"><g><svg viewBox="0 0 395.52 389.7149933616118" height="247.2" width="250.88217201147827"><g transform="matrix(1,0,0,1,0,261.6493784818862)"><svg viewBox="0 0 395.52 128.06561487972562" height="128.06561487972562" width="395.52"><g id="textblocktransform"><svg viewBox="0 0 395.52 128.06561487972562" height="128.06561487972562" width="395.52" id="textblock"><g><rect width="75.54432" height="7.057944422032222" y="108.87407182919908" fill="#ffffff" data-fill-palette-color="tertiary"></rect><rect width="75.54432" height="7.057944422032222" y="108.87407182919908" x="319.97568" fill="#ffffff" data-fill-palette-color="tertiary"></rect></g><g><svg viewBox="0 0 395.52 78.2641789021911" height="78.2641789021911" width="395.52"><g transform="matrix(1,0,0,1,0,0)"><svg width="395.52" viewBox="1.85 -42.95 221.33 43.800000000000004" height="78.2641789021911" data-palette-color="#ffffff"><path d="M12.95-38.6Q11.2-38.6 10.58-37.88 9.95-37.15 9.95-35.15L9.95-35.15 9.95-27.65 15.45-27.65 15.45-23.25 9.95-23.25 9.95 0 5.25 0 5.25-23.25 1.85-23.25 1.85-27.65 5.25-27.65 5.25-36.4Q5.25-39.95 6.9-41.45 8.55-42.95 12.3-42.95L12.3-42.95Q13.5-42.95 15.45-42.6L15.45-42.6 15.45-38.3Q14.3-38.6 12.95-38.6L12.95-38.6ZM33.15 0.85Q28.75 0.85 25.67-1.07 22.6-3 21.05-6.33 19.5-9.65 19.5-13.8L19.5-13.8Q19.5-17.95 21.05-21.28 22.6-24.6 25.67-26.53 28.75-28.45 33.15-28.45L33.15-28.45Q37.55-28.45 40.62-26.53 43.7-24.6 45.22-21.28 46.75-17.95 46.75-13.8L46.75-13.8Q46.75-9.65 45.22-6.33 43.7-3 40.62-1.07 37.55 0.85 33.15 0.85L33.15 0.85ZM33.15-3.4Q37.3-3.4 39.57-6.3 41.85-9.2 41.85-13.8L41.85-13.8Q41.85-18.4 39.57-21.28 37.3-24.15 33.15-24.15L33.15-24.15Q29-24.15 26.7-21.28 24.4-18.4 24.4-13.8L24.4-13.8Q24.4-9.2 26.7-6.3 29-3.4 33.15-3.4L33.15-3.4ZM66 0.85Q61.59 0.85 58.52-1.07 55.45-3 53.9-6.33 52.34-9.65 52.34-13.8L52.34-13.8Q52.34-17.95 53.9-21.28 55.45-24.6 58.52-26.53 61.59-28.45 66-28.45L66-28.45Q70.4-28.45 73.47-26.53 76.55-24.6 78.07-21.28 79.59-17.95 79.59-13.8L79.59-13.8Q79.59-9.65 78.07-6.33 76.55-3 73.47-1.07 70.4 0.85 66 0.85L66 0.85ZM66-3.4Q70.15-3.4 72.42-6.3 74.7-9.2 74.7-13.8L74.7-13.8Q74.7-18.4 72.42-21.28 70.15-24.15 66-24.15L66-24.15Q61.84-24.15 59.55-21.28 57.25-18.4 57.25-13.8L57.25-13.8Q57.25-9.2 59.55-6.3 61.84-3.4 66-3.4L66-3.4ZM105.49-42.3L110.19-42.3 110.19 0 105.49 0 105.49-2.5Q101.54 0.85 97.49 0.85L97.49 0.85Q91.89 0.85 88.54-2.9 85.19-6.65 85.19-13.8L85.19-13.8Q85.19-20.95 88.54-24.7 91.89-28.45 97.49-28.45L97.49-28.45Q101.49-28.45 105.49-25.05L105.49-25.05 105.49-42.3ZM98.09-3.5Q101.69-3.5 105.49-6.6L105.49-6.6 105.49-20.95Q101.79-24.05 98.09-24.05L98.09-24.05Q94.14-24.05 92.12-21.45 90.09-18.85 90.09-13.8L90.09-13.8Q90.09-8.75 92.12-6.13 94.14-3.5 98.09-3.5L98.09-3.5ZM148.19-27.65L153.09-27.65 142.64 0.45 137.24 0.45 126.69-27.65 131.59-27.65 139.94-4.75 148.19-27.65ZM158.59-32.85L158.59-40.4 163.29-40.4 163.29-32.85 158.59-32.85ZM158.59 0L158.59-27.65 163.29-27.65 163.29 0 158.59 0ZM179.33 0.65Q175.58 0.65 173.93-0.85 172.28-2.35 172.28-5.9L172.28-5.9 172.28-42.3 176.98-42.3 176.98-7.15Q176.98-5.15 177.61-4.42 178.23-3.7 179.98-3.7L179.98-3.7Q181.38-3.7 182.48-4L182.48-4 182.48 0.3Q180.48 0.65 179.33 0.65L179.33 0.65ZM195.28 0.65Q191.53 0.65 189.88-0.85 188.23-2.35 188.23-5.9L188.23-5.9 188.23-42.3 192.93-42.3 192.93-7.15Q192.93-5.15 193.56-4.42 194.18-3.7 195.93-3.7L195.93-3.7Q197.33-3.7 198.43-4L198.43-4 198.43 0.3Q196.43 0.65 195.28 0.65L195.28 0.65ZM212.68-27.65Q217.08-27.65 219.38-26.18 221.68-24.7 222.43-22.23 223.18-19.75 223.18-16L223.18-16 223.18 0 218.48 0 218.48-2.75Q216.58-0.95 214.68-0.15 212.78 0.65 210.58 0.65L210.58 0.65Q207.98 0.65 205.88-0.48 203.78-1.6 202.55-3.73 201.33-5.85 201.33-8.75L201.33-8.75Q201.33-13.25 204.13-15.73 206.93-18.2 211.68-18.2L211.68-18.2Q215.43-18.2 218.43-16.55L218.43-16.55Q218.38-19 217.93-20.45 217.48-21.9 216.08-22.68 214.68-23.45 211.93-23.45L211.93-23.45 208.23-23.45 208.23-27.65 212.68-27.65ZM211.23-3.4Q212.93-3.4 214.8-4.2 216.68-5 218.48-6.6L218.48-6.6 218.48-12.9Q215.68-14.3 212.38-14.3L212.38-14.3Q209.73-14.3 207.93-13.03 206.13-11.75 206.13-8.75L206.13-8.75Q206.13-5.95 207.65-4.67 209.18-3.4 211.23-3.4L211.23-3.4Z" opacity="1" transform="matrix(1,0,0,1,0,0)" fill="#ffffff" class="wordmark-text-0" data-fill-palette-color="primary" id="text-0"></path></svg></g></svg></g><g transform="matrix(1,0,0,1,75.54432,96.74047320070477)"><svg viewBox="0 0 244.43135999999998 31.325141679020856" height="31.325141679020856" width="244.43135999999998"><g transform="matrix(1,0,0,1,8,0)"><svg width="228.43135999999998" viewBox="1.1 -37.84 283.22999999999996 38.84" height="31.325141679020856" data-palette-color="#81ffd9"><path d="M6.71-0.29L6.71-0.29Q5.59 0.49 4.15 0.49 2.71 0.49 2.06-0.18 1.42-0.85 1.42-1.46L1.42-1.46Q1.42-2.27 1.68-2.64L1.68-2.64Q2.22-2.22 3.05-2.22L3.05-2.22Q4.61-2.22 5.08-3.74L5.08-3.74 5.08-11.13Q5.08-12.26 4.64-12.79L4.64-12.79Q3.86-13.75 2.1-14.6L2.1-14.6Q5.08-15.97 5.08-18.8L5.08-18.8 5.08-21.36Q5.08-23.44 3.66-23.61L3.66-23.61Q3.25-23.66 2.61-23.66 1.98-23.66 1.44-23.24L1.44-23.24Q1.1-23.71 1.1-24.21 1.1-24.71 1.35-25.33 1.61-25.95 2.15-26.51L2.15-26.51Q3.42-27.83 5.11-27.83 6.81-27.83 7.93-27.29L7.93-27.29Q9.28-28.81 10.82-28.81L10.82-28.81Q13.21-28.81 13.21-26.17L13.21-26.17 13.21-22.83Q15.65-28.83 20.97-28.83L20.97-28.83Q23.36-28.83 24.85-27.37L24.85-27.37Q26.39-25.88 26.39-23.24L26.39-23.24 26.39-22.9Q26.39-22.73 26.34-22.2 26.29-21.68 26.38-21.14 26.46-20.61 26.66-20.26L26.66-20.26Q26.93-19.75 27.66-19.46L27.66-19.46Q27.49-18.8 26.87-18.27 26.25-17.75 25.49-17.75L25.49-17.75 25.02-17.75Q24.07-16.55 22.36-16.06L22.36-16.06Q21.88-15.92 21.3-15.92 20.73-15.92 20.3-16.17 19.87-16.43 19.82-16.72L19.82-16.72Q20.29-16.94 20.29-17.6L20.29-17.6 20.29-17.72Q20.09-17.68 19.95-17.68L19.95-17.68 19.7-17.68Q18.9-17.68 18.25-18.29 17.6-18.9 17.41-19.82L17.41-19.82Q18.73-19.78 19.7-20.8L19.7-20.8Q20.58-21.7 20.58-22.66L20.58-22.66Q20.58-24.9 18.63-24.9L18.63-24.9Q16.94-24.9 15.23-22.22L15.23-22.22Q13.62-19.75 13.21-17.11L13.21-17.11 13.21-3.91Q13.48-3.05 14.04-2.64 14.6-2.22 15.58-2.22 16.55-2.22 17.09-2.64L17.09-2.64Q17.36-2.27 17.36-1.56 17.36-0.85 16.71-0.18 16.06 0.49 14.54 0.49 13.01 0.49 11.62-0.34L11.62-0.34Q10.64 0.49 9.25 0.49 7.86 0.49 6.71-0.29ZM8.83-11.88Q8.84-12.7 8.85-13.26 8.86-13.82 8.86-14.16L8.86-14.16 8.86-14.82Q8.86-15.19 8.85-15.76 8.84-16.33 8.83-17.05 8.81-17.77 8.79-18.46L8.79-18.46Q8.64-21 8.24-21.72 7.84-22.44 7.42-22.71L7.42-22.71 7.42-21.12Q7.42-17.02 7.24-16.3 7.06-15.58 6.65-15.22 6.25-14.87 5.47-14.6L5.47-14.6Q6.93-14.09 7.13-13.35L7.13-13.35Q7.42-12.18 7.42-8.08L7.42-8.08 7.42-6.49Q8.54-7.23 8.69-9.47L8.69-9.47Q8.81-11.06 8.83-11.88ZM50.44-7.37L50.44-7.37Q50.97-8.4 52.41-8.4L52.41-8.4Q53.39-8.4 53.93-7.59L53.93-7.59Q54.37-6.96 54.37-6.04 54.37-5.13 53.9-4.2 53.44-3.27 52.63-2.51 51.83-1.76 50.79-1.17 49.75-0.59 48.58-0.2L48.58-0.2Q46.16 0.61 43.55 0.61 40.94 0.61 38.66-0.26 36.37-1.12 34.74-2.69L34.74-2.69Q31.54-5.76 30.83-11.13L30.83-11.13Q30.66-12.33 30.27-12.84L30.27-12.84Q29.54-13.75 27.85-14.58L27.85-14.58Q29.98-15.53 30.56-17.63L30.56-17.63Q30.73-18.21 30.83-18.8L30.83-18.8Q31.44-23.1 35.18-26.12L35.18-26.12Q38.79-29.05 43.26-29.05L43.26-29.05Q47.9-29.05 51.29-25.78L51.29-25.78Q54.81-22.41 54.81-17.5L54.81-17.5Q54.81-17.33 54.79-17.16 54.78-16.99 54.81-16.85L54.81-16.85Q54.86-16.53 55.2-16.48L55.2-16.48Q55.64-15.92 55.64-15.28L55.64-15.28Q55.64-13.82 54.07-13.55L54.07-13.55Q53.68-13.48 52.85-13.35L52.85-13.35 39.08-11.16 39.08-8.81Q39.08-5.98 40.79-4.32L40.79-4.32Q42.4-2.73 44.87-2.73L44.87-2.73Q47.48-2.73 49.07-3.81L49.07-3.81Q50.56-4.83 50.56-6.49L50.56-6.49Q50.56-6.88 50.44-7.37ZM39.08-14.11L46.16-15.26 46.16-22.09Q46.16-23.71 45.53-24.46L45.53-24.46Q44.41-25.76 43.31-25.76 42.21-25.76 41.48-25.43 40.74-25.1 40.21-24.39L40.21-24.39Q39.08-22.9 39.08-19.75L39.08-19.75 39.08-14.11ZM48.26-15.63L49.78-15.87 49.78-16.63Q49.78-21.17 49.02-22.12L49.02-22.12Q48.68-22.53 48.26-22.73L48.26-22.73 48.26-15.63ZM35.1-6.47L35.1-6.47Q35.45-6.74 35.45-7.08L35.45-7.08Q35.45-7.62 35.23-8.45L35.23-8.45Q34.23-12.28 34.23-13.78 34.23-15.28 34.32-16.13 34.42-16.97 34.59-17.82L34.59-17.82Q34.89-19.48 35.23-20.75L35.23-20.75Q35.45-21.58 35.45-21.88L35.45-21.88Q35.45-22.46 35.1-22.73L35.1-22.73Q34.08-21.51 33.54-19.46 33.01-17.41 32.66-15.84L32.66-15.84Q32.54-15.19 31.22-14.58L31.22-14.58Q32.54-13.96 32.66-13.35L32.66-13.35Q33.57-9.23 34.15-8.11 34.74-6.98 35.1-6.47ZM63.79-0.59L63.79-0.59Q62.13 1 60.59 1L60.59 1Q59.74 1 59.42 0.37L59.42 0.37Q59.98-0.2 59.98-0.76 59.98-1.32 59.81-1.61L59.81-1.61 59.49-2.17 59.88-1.44Q59.3-1.71 58.98-2.34 58.66-2.98 58.66-3.89 58.66-4.81 59.69-5.98L59.69-5.98Q59.2-6.67 59.2-7.5 59.2-8.33 59.48-8.87 59.76-9.42 60.2-9.86L60.2-9.86Q61.18-10.79 62.28-10.79L62.28-10.79Q63.01-10.79 63.33-10.28L63.33-10.28Q62.67-9.57 62.67-8.04 62.67-6.52 63.19-5.44 63.72-4.37 64.62-3.61L64.62-3.61Q66.52-2 69.31-2L69.31-2Q72.41-2 73.6-4.27L73.6-4.27Q73.95-4.96 73.95-5.65 73.95-6.35 73.63-6.9 73.31-7.45 72.8-7.96L72.8-7.96Q71.94-8.79 70.19-9.86L70.19-9.86Q68.5-11.06 66.21-11.06L66.21-11.06Q64.72-11.06 64.2-10.82L64.2-10.82Q64.52-11.55 64.52-12.28 64.52-13.01 63.54-13.88 62.57-14.75 61.8-15.63 61.03-16.5 60.57-17.38L60.57-17.38Q59.64-19.04 59.64-20.9 59.64-22.75 60.41-24.18 61.18-25.61 62.57-26.64L62.57-26.64Q65.47-28.81 70.01-28.81L70.01-28.81Q72.21-28.81 73.03-28.61 73.85-28.42 74.34-28.25L74.34-28.25Q75-28 75.95-28 76.9-28 77.28-28.42 77.66-28.83 77.66-29.19 77.66-29.54 77.58-29.74L77.58-29.74Q77.73-29.79 78.02-29.79 78.32-29.79 78.69-29.61 79.07-29.44 79.37-29.15L79.37-29.15Q79.95-28.49 79.95-27.75 79.95-27 79.66-26.61L79.66-26.61Q80.34-25.98 80.34-24.8 80.34-23.63 79.37-22.83L79.37-22.83Q79.58-22.39 79.58-21.75 79.58-21.12 78.9-20.53 78.22-19.95 77.61-19.95L77.61-19.95Q76.56-19.95 76.19-20.21L76.19-20.21Q76.51-21 76.51-21.91 76.51-22.83 76.02-23.66 75.53-24.49 74.78-25L74.78-25Q73.36-25.98 71.41-25.98L71.41-25.98Q68.94-25.98 68.09-24.41L68.09-24.41Q67.82-23.93 67.82-23.35 67.82-22.78 67.98-22.3 68.13-21.83 68.5-21.34L68.5-21.34Q69.21-20.39 70.5-19.53L70.5-19.53Q72.19-18.43 72.85-18.43L72.85-18.43Q74.26-18.43 75.31-19.12L75.31-19.12Q75.02-17.94 75.02-17.48L75.02-17.48Q75.02-16.77 76.14-15.84L76.14-15.84Q79.29-13.67 80.44-11.87L80.44-11.87Q81.54-10.11 81.54-7.96 81.54-5.81 80.59-4.28 79.63-2.76 78-1.66L78-1.66Q74.6 0.61 69.77 0.61L69.77 0.61Q66.47 0.61 63.79-0.59ZM62.93-22.95L62.93-22.95Q62.23-22.61 62.23-21.06 62.23-19.51 63.23-18.1 64.23-16.7 66.4-14.94L66.4-14.94Q66.91-14.55 66.91-14.18L66.91-14.18Q66.91-13.62 66.82-13.28L66.82-13.28Q67.11-13.35 67.84-13.43L67.84-13.43Q69.62-13.6 72.26-11.77L72.26-11.77Q76.46-9.18 76.46-6.32L76.46-6.32Q76.46-5.25 76.17-4.71L76.17-4.71Q77.05-4.88 77.51-6.2L77.51-6.2Q77.63-6.59 77.63-7.01L77.63-7.01Q77.63-8.98 75.5-11.02 73.36-13.06 69.36-14.97L69.36-14.97Q62.71-18.33 62.93-22.95ZM100.46-3.58Q100.92-4.05 101.19-4.8 101.46-5.54 101.46-6.36 101.46-7.18 101.36-7.86L101.36-7.86Q101.53-8.23 102.29-8.44 103.04-8.64 103.29-8.64L103.29-8.64Q104.22-8.64 104.78-7.95 105.34-7.25 105.34-6.02 105.34-4.79 104.62-3.59 103.9-2.39 102.7-1.46L102.7-1.46Q100.04 0.61 96.5 0.61L96.5 0.61Q89.76 0.61 87.57-4.49L87.57-4.49Q86.76-6.37 86.76-9.2L86.76-9.2 86.76-12.18Q86.76-13.33 84.25-14.6L84.25-14.6Q86.76-16.04 86.76-18.48L86.76-18.48 86.76-21.36Q86.76-24.15 84.49-24.15L84.49-24.15Q83.66-24.15 83.12-23.73L83.12-23.73Q82.78-24.19 82.78-24.69 82.78-25.2 82.96-25.79 83.15-26.39 83.61-26.88L83.61-26.88Q84.78-28.15 87.25-27.76L87.25-27.76 87.25-28.54Q87.25-31.1 88.54-33.06L88.54-33.06Q89.69-34.81 90.58-34.81 91.47-34.81 91.96-34.2L91.96-34.2Q92.38-36.13 93.06-36.99 93.74-37.84 95.01-37.84L95.01-37.84 95.01-27.66 102.95-27.66Q103.14-27.27 103.14-26.35 103.14-25.44 102.43-24.89 101.73-24.34 100.72-24.34L100.72-24.34 95.01-24.34 95.01-7.81Q95.01-3.56 96.94-2.83L96.94-2.83Q97.5-2.64 98.15-2.64 98.8-2.64 99.39-2.87 99.99-3.1 100.46-3.58ZM89.1-8.06L89.1-6.47Q90.25-7.2 90.4-9.52L90.4-9.52Q90.5-11.18 90.51-12.11 90.52-13.04 90.53-13.61 90.54-14.18 90.54-14.5L90.54-14.5 90.54-15.48Q90.54-16.19 90.53-17.3 90.52-18.41 90.51-19.71 90.5-21.02 90.45-22.22L90.45-22.22Q90.37-25.1 90.23-25.73L90.23-25.73Q89.93-27.15 89.1-27.69L89.1-27.69 89.1-20.07Q89.1-16.67 88.99-16.48 88.88-16.28 88.81-16.02L88.81-16.02Q88.59-15.28 87.15-14.79L87.15-14.79Q88.62-14.28 88.81-13.55L88.81-13.55Q89.1-12.38 89.1-8.06L89.1-8.06ZM123.62-2.32L123.62-2.32Q121.4 0.61 116.96 0.61L116.96 0.61Q111.54 0.61 108.83-2.64L108.83-2.64Q107.66-4.03 107.22-5.74L107.22-5.74Q106.97-6.76 106.36-7.31 105.75-7.86 104.85-8.3L104.85-8.3Q106.61-9.11 107.36-11.33L107.36-11.33Q108.17-13.67 110.05-14.72L110.05-14.72Q112.07-15.82 114.52-15.88 116.96-15.94 118.13-16.04 119.3-16.14 120.2-16.36L120.2-16.36Q121.89-16.75 122.84-17.8L122.84-17.8 122.84-21.46Q122.84-23.88 121.85-25 120.86-26.12 118.85-26.12 116.84-26.12 115.87-25.38 114.91-24.63 114.91-23.39L114.91-23.39Q114.91-21.48 116.86-21.53L116.86-21.53Q116.47-19.63 114.81-19.63L114.81-19.63Q114.32-19.63 113.86-19.8L113.86-19.8 113.86-19.73Q113.86-19.09 114.44-18.92L114.44-18.92Q113.83-17.99 112.39-18.02 110.95-18.04 110.15-19.56L110.15-19.56Q109.78-19.46 109.3-19.46 108.83-19.46 108.25-19.78 107.68-20.09 107.34-20.65L107.34-20.65Q108.56-21.39 108.83-22.92L108.83-22.92Q109.12-24.8 111.83-26.73L111.83-26.73Q115.1-29.05 120.18-29.05L120.18-29.05Q128.6-29.05 130.46-23.88L130.46-23.88Q131.07-22.14 131.07-19.78L131.07-19.78 131.07-17.8Q131.07-16.6 131.67-15.84 132.27-15.09 133.71-14.6L133.71-14.6Q132.17-13.89 131.73-13.33L131.73-13.33Q131.07-12.48 131.07-11.38L131.07-11.38 131.07-4.05Q131.78-2.22 133.1-2.22L133.1-2.22Q133.93-2.22 134.46-2.64L134.46-2.64Q134.8-2.17 134.8-1.48 134.8-0.78 134.11-0.15 133.41 0.49 132.02 0.49 130.63 0.49 129.43-0.29L129.43-0.29Q128.38 0.49 127.57 0.49 126.75 0.49 126.15 0.33 125.55 0.17 125.04-0.17L125.04-0.17Q123.89-0.93 123.62-2.32ZM125.16-22.73L125.16-6.47Q126.58-7.03 126.65-11.87L126.65-11.87Q126.65-12.89 126.65-14.21 126.65-15.53 126.64-16.47 126.63-17.41 126.6-18.26L126.6-18.26Q126.5-21.34 126.04-21.94 125.58-22.53 125.16-22.73L125.16-22.73ZM116.15-8.2L116.15-8.2Q116.15-7.18 116.37-6.2 116.59-5.22 117.03-4.49L117.03-4.49Q118.01-2.95 119.79-2.95L119.79-2.95Q121.13-2.95 122.01-4.05L122.01-4.05Q122.84-5.13 122.84-6.81L122.84-6.81 122.84-14.77Q121.28-13.87 118.84-13.53L118.84-13.53Q116.15-13.11 116.15-8.2ZM112.49-2.71L112.49-2.71Q112.73-2.88 112.73-3.15L112.73-3.15Q112.73-3.52 112.39-4.17L112.39-4.17Q111.17-6.42 111.17-7.86 111.17-9.3 111.28-9.94 111.39-10.57 111.57-11.02 111.76-11.47 111.99-11.82 112.22-12.16 112.39-12.43L112.39-12.43Q112.71-12.99 112.71-13.2 112.71-13.4 112.49-13.55L112.49-13.55Q111.49-13.09 111.03-12.45L111.03-12.45Q110.2-11.33 109.8-9.55L109.8-9.55Q109.71-9.03 108.1-8.3L108.1-8.3Q109.66-7.59 109.8-7.06L109.8-7.06Q110.63-4.15 112.49-2.71ZM160.75 0.49L160.75 0.49Q157.31 0.49 157.04-4.27L157.04-4.27Q155.8-2.03 153.69-0.71 151.57 0.61 149.15 0.61 146.72 0.61 145.2-0.05 143.69-0.71 142.69-1.95L142.69-1.95Q140.73-4.39 140.73-8.89L140.73-8.89 140.73-10.4Q140.73-13.23 137.76-14.6L137.76-14.6Q139.51-15.45 140-16.04L140-16.04Q140.73-16.94 140.73-18.07L140.73-18.07 140.73-21.36Q140.73-23.44 139.32-23.61L139.32-23.61Q138.9-23.66 138.27-23.66 137.63-23.66 137.1-23.24L137.1-23.24Q136.76-23.71 136.76-24.21 136.76-24.71 137.01-25.33 137.27-25.95 137.8-26.51L137.8-26.51Q139.07-27.83 140.76-27.83 142.44-27.83 143.93-27.27L143.93-27.27Q145.01-28.81 146.47-28.81L146.47-28.81Q148.99-28.81 148.99-26.17L148.99-26.17 148.99-10.28Q148.99-5.64 151.13-4.71L151.13-4.71Q151.82-4.42 152.66-4.42 153.5-4.42 154.19-4.77 154.87-5.13 155.38-5.74L155.38-5.74Q156.34-6.93 156.6-9.01L156.6-9.01 156.6-21.36Q156.6-24.15 154.33-24.15L154.33-24.15Q153.5-24.15 152.97-23.73L152.97-23.73Q152.62-24.19 152.62-24.69 152.62-25.2 152.88-25.74 153.14-26.29 153.67-26.76L153.67-26.76Q154.87-27.83 156.59-27.83 158.31-27.83 159.8-27.27L159.8-27.27Q160.88-28.81 162.34-28.81L162.34-28.81Q164.86-28.81 164.86-26.17L164.86-26.17 164.86-18.07Q164.86-16.94 165.3-16.41L165.3-16.41Q166.08-15.45 167.83-14.6L167.83-14.6Q164.86-13.23 164.86-10.4L164.86-10.4 164.86-4.1Q165.32-2.22 166.88-2.22L166.88-2.22Q167.71-2.22 168.25-2.64L168.25-2.64Q168.59-2.17 168.59-1.48 168.59-0.78 167.9-0.15 167.2 0.49 165.72 0.49 164.25 0.49 162.93-0.29L162.93-0.29Q161.95 0.49 160.75 0.49ZM158.92-22.73L158.92-6.47Q160.34-7.03 160.41-11.87L160.41-11.87Q160.41-12.89 160.41-14.21 160.41-15.53 160.4-16.47 160.39-17.41 160.36-18.26L160.36-18.26Q160.27-21.34 159.8-21.94 159.34-22.53 158.92-22.73L158.92-22.73ZM144.4-11.38L144.32-14.6 144.4-17.82Q144.4-20 144.25-20.7L144.25-20.7Q143.84-22.56 143.08-22.73L143.08-22.73 143.08-21.14Q143.08-17.02 142.9-16.3 142.71-15.58 142.31-15.22 141.91-14.87 141.13-14.6L141.13-14.6Q142.59-14.09 142.79-13.35L142.79-13.35Q143.08-12.18 143.08-8.06L143.08-8.06 143.08-6.47Q143.81-6.64 144.27-8.64L144.27-8.64Q144.4-9.2 144.4-11.38L144.4-11.38ZM176.28-0.29L176.28-0.29Q175.16 0.49 173.72 0.49 172.28 0.49 171.63-0.18 170.98-0.85 170.98-1.46L170.98-1.46Q170.98-2.27 171.25-2.64L171.25-2.64Q171.79-2.22 172.62-2.22L172.62-2.22Q174.18-2.22 174.64-3.74L174.64-3.74 174.64-11.13Q174.64-12.26 174.2-12.79L174.2-12.79Q173.42-13.75 171.66-14.6L171.66-14.6Q174.64-15.97 174.64-18.8L174.64-18.8 174.64-21.36Q174.64-23.44 173.23-23.61L173.23-23.61Q172.81-23.66 172.18-23.66 171.54-23.66 171.01-23.24L171.01-23.24Q170.66-23.71 170.66-24.21 170.66-24.71 170.92-25.33 171.18-25.95 171.71-26.51L171.71-26.51Q172.98-27.83 174.68-27.83 176.38-27.83 177.5-27.29L177.5-27.29Q178.84-28.81 180.38-28.81L180.38-28.81Q182.77-28.81 182.77-26.17L182.77-26.17 182.77-22.83Q185.21-28.83 190.54-28.83L190.54-28.83Q192.93-28.83 194.42-27.37L194.42-27.37Q195.96-25.88 195.96-23.24L195.96-23.24 195.96-22.9Q195.96-22.73 195.91-22.2 195.86-21.68 195.94-21.14 196.03-20.61 196.23-20.26L196.23-20.26Q196.49-19.75 197.23-19.46L197.23-19.46Q197.06-18.8 196.43-18.27 195.81-17.75 195.05-17.75L195.05-17.75 194.59-17.75Q193.64-16.55 191.93-16.06L191.93-16.06Q191.44-15.92 190.87-15.92 190.29-15.92 189.87-16.17 189.44-16.43 189.39-16.72L189.39-16.72Q189.85-16.94 189.85-17.6L189.85-17.6 189.85-17.72Q189.66-17.68 189.51-17.68L189.51-17.68 189.27-17.68Q188.46-17.68 187.81-18.29 187.17-18.9 186.97-19.82L186.97-19.82Q188.29-19.78 189.27-20.8L189.27-20.8Q190.15-21.7 190.15-22.66L190.15-22.66Q190.15-24.9 188.19-24.9L188.19-24.9Q186.51-24.9 184.8-22.22L184.8-22.22Q183.19-19.75 182.77-17.11L182.77-17.11 182.77-3.91Q183.04-3.05 183.6-2.64 184.16-2.22 185.14-2.22 186.12-2.22 186.65-2.64L186.65-2.64Q186.92-2.27 186.92-1.56 186.92-0.85 186.28-0.18 185.63 0.49 184.1 0.49 182.58 0.49 181.19-0.34L181.19-0.34Q180.21 0.49 178.82 0.49 177.43 0.49 176.28-0.29ZM178.39-11.88Q178.4-12.7 178.42-13.26 178.43-13.82 178.43-14.16L178.43-14.16 178.43-14.82Q178.43-15.19 178.42-15.76 178.4-16.33 178.39-17.05 178.38-17.77 178.35-18.46L178.35-18.46Q178.21-21 177.8-21.72 177.4-22.44 176.99-22.71L176.99-22.71 176.99-21.12Q176.99-17.02 176.8-16.3 176.62-15.58 176.22-15.22 175.82-14.87 175.03-14.6L175.03-14.6Q176.5-14.09 176.69-13.35L176.69-13.35Q176.99-12.18 176.99-8.08L176.99-8.08 176.99-6.49Q178.11-7.23 178.26-9.47L178.26-9.47Q178.38-11.06 178.39-11.88ZM215.68-2.32L215.68-2.32Q213.46 0.61 209.02 0.61L209.02 0.61Q203.6 0.61 200.89-2.64L200.89-2.64Q199.71-4.03 199.27-5.74L199.27-5.74Q199.03-6.76 198.42-7.31 197.81-7.86 196.91-8.3L196.91-8.3Q198.66-9.11 199.42-11.33L199.42-11.33Q200.23-13.67 202.11-14.72L202.11-14.72Q204.13-15.82 206.57-15.88 209.02-15.94 210.19-16.04 211.36-16.14 212.26-16.36L212.26-16.36Q213.95-16.75 214.9-17.8L214.9-17.8 214.9-21.46Q214.9-23.88 213.91-25 212.92-26.12 210.91-26.12 208.89-26.12 207.93-25.38 206.96-24.63 206.96-23.39L206.96-23.39Q206.96-21.48 208.92-21.53L208.92-21.53Q208.53-19.63 206.87-19.63L206.87-19.63Q206.38-19.63 205.92-19.8L205.92-19.8 205.92-19.73Q205.92-19.09 206.5-18.92L206.5-18.92Q205.89-17.99 204.45-18.02 203.01-18.04 202.2-19.56L202.2-19.56Q201.84-19.46 201.36-19.46 200.89-19.46 200.31-19.78 199.74-20.09 199.4-20.65L199.4-20.65Q200.62-21.39 200.89-22.92L200.89-22.92Q201.18-24.8 203.89-26.73L203.89-26.73Q207.16-29.05 212.24-29.05L212.24-29.05Q220.66-29.05 222.52-23.88L222.52-23.88Q223.13-22.14 223.13-19.78L223.13-19.78 223.13-17.8Q223.13-16.6 223.73-15.84 224.32-15.09 225.76-14.6L225.76-14.6Q224.23-13.89 223.79-13.33L223.79-13.33Q223.13-12.48 223.13-11.38L223.13-11.38 223.13-4.05Q223.84-2.22 225.15-2.22L225.15-2.22Q225.98-2.22 226.52-2.64L226.52-2.64Q226.86-2.17 226.86-1.48 226.86-0.78 226.17-0.15 225.47 0.49 224.08 0.49 222.69 0.49 221.49-0.29L221.49-0.29Q220.44 0.49 219.62 0.49 218.81 0.49 218.21 0.33 217.61 0.17 217.1-0.17L217.1-0.17Q215.95-0.93 215.68-2.32ZM217.22-22.73L217.22-6.47Q218.63-7.03 218.71-11.87L218.71-11.87Q218.71-12.89 218.71-14.21 218.71-15.53 218.7-16.47 218.68-17.41 218.66-18.26L218.66-18.26Q218.56-21.34 218.1-21.94 217.63-22.53 217.22-22.73L217.22-22.73ZM208.21-8.2L208.21-8.2Q208.21-7.18 208.43-6.2 208.65-5.22 209.09-4.49L209.09-4.49Q210.07-2.95 211.85-2.95L211.85-2.95Q213.19-2.95 214.07-4.05L214.07-4.05Q214.9-5.13 214.9-6.81L214.9-6.81 214.9-14.77Q213.34-13.87 210.9-13.53L210.9-13.53Q208.21-13.11 208.21-8.2ZM204.55-2.71L204.55-2.71Q204.79-2.88 204.79-3.15L204.79-3.15Q204.79-3.52 204.45-4.17L204.45-4.17Q203.23-6.42 203.23-7.86 203.23-9.3 203.34-9.94 203.45-10.57 203.63-11.02 203.82-11.47 204.05-11.82 204.28-12.16 204.45-12.43L204.45-12.43Q204.77-12.99 204.77-13.2 204.77-13.4 204.55-13.55L204.55-13.55Q203.55-13.09 203.08-12.45L203.08-12.45Q202.25-11.33 201.86-9.55L201.86-9.55Q201.76-9.03 200.15-8.3L200.15-8.3Q201.72-7.59 201.86-7.06L201.86-7.06Q202.69-4.15 204.55-2.71ZM234.5-0.29L234.5-0.29Q233.38 0.49 231.94 0.49 230.5 0.49 229.85-0.18 229.2-0.85 229.2-1.46L229.2-1.46Q229.2-2.27 229.47-2.64L229.47-2.64Q230.01-2.22 230.84-2.22L230.84-2.22Q232.4-2.22 232.87-3.74L232.87-3.74 232.87-11.33Q232.87-12.4 232.4-12.89L232.4-12.89Q231.69-13.7 229.89-14.58L229.89-14.58Q231.6-15.36 232.06-15.82L232.06-15.82Q232.87-16.63 232.87-17.8L232.87-17.8 232.87-21.36Q232.87-23.44 231.45-23.61L231.45-23.61Q231.03-23.66 230.4-23.66 229.77-23.66 229.23-23.24L229.23-23.24Q228.89-23.71 228.89-24.21 228.89-24.71 229.14-25.33 229.4-25.95 229.91-26.51L229.91-26.51Q231.21-27.83 232.9-27.83 234.6-27.83 235.72-27.29L235.72-27.29Q237.06-28.81 238.46-28.81 239.85-28.81 240.39-28.16 240.92-27.51 240.92-26.17L240.92-26.17 240.92-23.88Q242.19-26.15 244.39-27.48 246.59-28.81 249.05-28.81 251.52-28.81 253.02-28.16 254.52-27.51 255.5-26.32L255.5-26.32Q257.4-23.95 257.4-19.43L257.4-19.43 257.4-17.82Q257.4-16.65 257.91-16.14L257.91-16.14Q258.67-15.36 260.38-14.58L260.38-14.58Q258.55-13.67 258.09-13.21L258.09-13.21Q257.4-12.45 257.4-11.38L257.4-11.38 257.4-3.74Q257.87-2.22 259.43-2.22L259.43-2.22Q260.26-2.22 260.8-2.64L260.8-2.64Q261.06-2.27 261.06-1.56 261.06-0.85 260.42-0.18 259.77 0.49 258.43 0.49 257.08 0.49 255.99-0.27L255.99-0.27Q255.01 0.49 253.7 0.49 252.4 0.49 251.37-0.24L251.37-0.24Q250.3 0.49 249.08 0.49 247.86 0.49 247.15-0.12 246.44-0.73 246.44-1.88L246.44-1.88Q246.44-2.42 246.81-2.73L246.81-2.73Q247.37-2.29 247.93-2.29L247.93-2.29Q249-2.29 249.47-3.49L249.47-3.49 249.47-18.04Q249.47-22.78 247.15-23.54L247.15-23.54Q246.39-23.78 245.51-23.78 244.63-23.78 243.88-23.43 243.12-23.07 242.51-22.44L242.51-22.44Q241.17-21.02 240.92-19.07L240.92-19.07 240.92-3.49Q241.39-2.29 242.46-2.29L242.46-2.29Q243.02-2.29 243.58-2.73L243.58-2.73Q243.95-2.42 243.95-1.57 243.95-0.73 243.24-0.12 242.53 0.49 241.37 0.49 240.21 0.49 239.26-0.24L239.26-0.24Q238.33 0.49 236.99 0.49 235.65 0.49 234.5-0.29ZM251.81-15.77L251.81-6.47Q253.03-6.93 253.15-9.67L253.15-9.67Q253.3-12.4 253.3-14.82 253.3-17.24 253.11-18.81 252.91-20.39 252.54-21.28 252.18-22.17 251.68-22.57 251.18-22.97 250.59-23.27L250.59-23.27Q251.52-21.07 251.66-19.26 251.81-17.46 251.81-15.77L251.81-15.77ZM236.61-11.87Q236.63-12.67 236.64-13.22 236.65-13.77 236.65-14.11 236.65-14.45 236.65-14.81 236.65-15.16 236.64-15.75 236.63-16.33 236.61-17.04 236.6-17.75 236.55-18.43L236.55-18.43Q236.48-20.12 236.33-20.75L236.33-20.75Q236.04-22.17 235.21-22.71L235.21-22.71 235.21-21.12Q235.21-17.02 235.03-16.3 234.84-15.58 234.44-15.21 234.04-14.84 233.26-14.58L233.26-14.58Q234.72-14.06 234.92-13.35L234.92-13.35Q235.21-12.18 235.21-8.08L235.21-8.08 235.21-6.49Q236.33-7.23 236.5-9.47L236.5-9.47Q236.6-11.06 236.61-11.87ZM279.45-3.58Q279.91-4.05 280.18-4.8 280.45-5.54 280.45-6.36 280.45-7.18 280.35-7.86L280.35-7.86Q280.52-8.23 281.28-8.44 282.03-8.64 282.28-8.64L282.28-8.64Q283.21-8.64 283.77-7.95 284.33-7.25 284.33-6.02 284.33-4.79 283.61-3.59 282.89-2.39 281.69-1.46L281.69-1.46Q279.03 0.61 275.49 0.61L275.49 0.61Q268.75 0.61 266.55-4.49L266.55-4.49Q265.75-6.37 265.75-9.2L265.75-9.2 265.75-12.18Q265.75-13.33 263.23-14.6L263.23-14.6Q265.75-16.04 265.75-18.48L265.75-18.48 265.75-21.36Q265.75-24.15 263.48-24.15L263.48-24.15Q262.65-24.15 262.11-23.73L262.11-23.73Q261.77-24.19 261.77-24.69 261.77-25.2 261.95-25.79 262.14-26.39 262.6-26.88L262.6-26.88Q263.77-28.15 266.24-27.76L266.24-27.76 266.24-28.54Q266.24-31.1 267.53-33.06L267.53-33.06Q268.68-34.81 269.57-34.81 270.46-34.81 270.95-34.2L270.95-34.2Q271.36-36.13 272.05-36.99 272.73-37.84 274-37.84L274-37.84 274-27.66 281.94-27.66Q282.13-27.27 282.13-26.35 282.13-25.44 281.42-24.89 280.71-24.34 279.71-24.34L279.71-24.34 274-24.34 274-7.81Q274-3.56 275.93-2.83L275.93-2.83Q276.49-2.64 277.14-2.64 277.79-2.64 278.38-2.87 278.98-3.1 279.45-3.58ZM268.09-8.06L268.09-6.47Q269.24-7.2 269.39-9.52L269.39-9.52Q269.48-11.18 269.5-12.11 269.51-13.04 269.52-13.61 269.53-14.18 269.53-14.5L269.53-14.5 269.53-15.48Q269.53-16.19 269.52-17.3 269.51-18.41 269.5-19.71 269.48-21.02 269.44-22.22L269.44-22.22Q269.36-25.1 269.22-25.73L269.22-25.73Q268.92-27.15 268.09-27.69L268.09-27.69 268.09-20.07Q268.09-16.67 267.98-16.48 267.87-16.28 267.8-16.02L267.8-16.02Q267.58-15.28 266.14-14.79L266.14-14.79Q267.6-14.28 267.8-13.55L267.8-13.55Q268.09-12.38 268.09-8.06L268.09-8.06Z" opacity="1" transform="matrix(1,0,0,1,0,0)" fill="#81ffd9" class="slogan-text-1" data-fill-palette-color="secondary" id="text-1"></path></svg></g></svg></g></svg></g></svg></g><g transform="matrix(1,0,0,1,85.41160505757057,0)"><svg viewBox="0 0 224.69678988485884 224.69678988485884" height="224.69678988485884" width="224.69678988485884"><g><svg></svg></g><g id="icon-0"><svg viewBox="0 0 224.69678988485884 224.69678988485884" height="224.69678988485884" width="224.69678988485884"><g><path d="M0 112.348c0-62.048 50.3-112.348 112.348-112.348 62.048 0 112.348 50.3 112.349 112.348 0 62.048-50.3 112.348-112.349 112.349-62.048 0-112.348-50.3-112.348-112.349zM112.348 217.639c58.15 0 105.29-47.14 105.291-105.291 0-58.15-47.14-105.29-105.291-105.29-58.15 0-105.29 47.14-105.29 105.29 0 58.15 47.14 105.29 105.29 105.291z" data-fill-palette-color="tertiary" fill="#ffffff" stroke="transparent"></path></g><g transform="matrix(1,0,0,1,49.75059225689261,70.93241434294981)"><svg viewBox="0 0 125.19560537107363 82.8319611989592" height="82.8319611989592" width="125.19560537107363"><g><svg xmlns="http://www.w3.org/2000/svg" xmlns:xlink="http://www.w3.org/1999/xlink" version="1.1" x="0" y="0" viewBox="58.001 124.99900000000002 395.99900000000014 262.001" enable-background="new 0 0 512 512" xml:space="preserve" height="82.8319611989592" width="125.19560537107363" class="icon-cg-0" data-fill-palette-color="accent" id="cg-0"><g fill="#81ffd9" data-fill-palette-color="accent"><path d="M453.806 177.943l-10.77-48.969c-0.503-2.293-2.574-3.975-4.923-3.975H74.271c-2.341 0-4.369 1.671-4.879 3.955l-11.065 48.592c-0.08 0.358-0.326 0.747-0.326 1.114v13.806c0 0.706 0.354 1.403 0.643 2.047 1.491 3.321 6.053 9.129 13.315 9.824 0.835 0.08 1.77 0.08 2.647 0.003l0.036 170.462c0 0.408 0.359 0.807 0.359 1.197v5.5c0 2.762 1.895 5.5 4.656 5.5h114.039c1.324 0 2.593-0.774 3.531-1.71l5.195-5.237L214.553 380c0.001 0 0.001 0 0.002 0 0.308 0 0.614 0 0.913 0h38.579c0.508 0 0.998-0.075 1.459-0.217 0.462 0.141 0.952 0.217 1.459 0.217h39.855c0.151 0 0.302-0.007 0.452-0.021 0.15 0.014 0.302 0.021 0.455 0.021h11.805l5.394 5.43c0.935 0.916 2.192 1.57 3.501 1.57h108.571c2.761 0 4.999-2.487 5-5.248l0.004-7.868c0.024-13.098 0.292-147.915 0.079-163.821-0.016-1.218 0.821-7.706 0.004-8.608 0.378 0.385 0.766 0.811 1.182 1.297 0.471 0.55 0.911 1.062 1.423 1.543 1.749 1.639 4.31 2.466 7.31 2.466v-0.002c4 0 8.042-1.311 8.492-1.459 2.045-0.679 3.508-2.592 3.508-4.747v-21.537C454 178.654 453.883 178.295 453.806 177.943zM422 368.214c0 0.548 0 0.786 0 1.786H313.618l-2.613-2.566c-0.935-0.916-2.192-1.434-3.501-1.434h-4.784l-0.126-147.822c-0.001-1.94-1.125-3.757-2.882-4.578-1.757-0.822-3.831-0.579-5.321 0.663-2.194 1.83-2.477 2.052-2.784 28.978-0.15 13.09-0.207 31.308-0.17 53.951 0.044 27.399 0.218 54.809 0.315 68.809h-29.797l-0.162-144.489c-0.002-1.909-1.08-3.64-2.684-4.479-0.199-0.209-0.543-0.62-1.072-1.281-1.326-1.659-3.554-2.313-5.558-1.61-2.004 0.701-3.347 2.691-3.348 4.814L249.052 366h-28.729l-0.079-140.938c0-0.552-0.095-1.142-0.271-1.646 0.108-1.516 0.053-3.667-0.582-6.37-0.581-2.473-2.922-4.126-5.443-3.837-2.522 0.291-4.425 2.527-4.424 5.066L209.554 366h-5.117c-1.324 0-2.593 0.419-3.531 1.354l-2.445 2.557L85 369.811V207c2-1.196 25.467-5.828 26.808-7.28 1.404-1.52 2.769-3.092 3.817-3.092 0.794 0 1.755 1.016 3.313 2.688 2.452 2.632 5.789 6.235 11.526 6.235 5.708 0 9.009-3.483 11.427-6.026 1.659-1.745 2.522-2.567 3.318-2.567 0.785 0 1.625 0.832 3.23 2.598 2.171 2.388 5.449 5.996 10.928 5.996 5.533 0 8.714-3.729 10.819-6.196 1.746-2.047 2.468-2.728 3.305-2.728 0.797 0 1.442 0.633 3.104 2.663 2.04 2.493 5.123 6.261 10.685 6.261 5.376 0 9.053-3.563 11.738-6.165 1.029-0.997 2.752-2.667 3.358-2.763 0.615 0.156 2.067 1.798 2.935 2.779 2.295 2.595 5.439 6.148 10.385 6.148 4.912 0 8.429-3.534 11.256-6.374 0.779-0.783 1.867-1.876 2.615-2.446 0.586 0.528 1.391 1.434 1.974 2.089 2.526 2.841 5.985 6.731 11.396 6.731 4.692 0 7.966-2.793 10.598-5.036 2.216-1.891 3.654-3.049 5.211-3.049 1.083 0 1.677 0.517 3.46 2.568 1.909 2.197 4.794 5.517 9.821 5.517 4.942 0 8.297-3.225 10.748-5.58 0.846-0.812 2.606-2.505 3.135-2.505 0.542 0.077 2.063 1.589 2.881 2.401 2.413 2.398 5.717 5.684 10.818 5.684 5.095 0 8.353-3.434 10.731-5.941 1.191-1.255 2.673-2.817 3.463-2.817 0.692 0 2.005 1.376 3.164 2.591 2.484 2.603 5.886 6.168 11.554 6.168 5.926 0 8.99-3.892 11.017-6.467 1.272-1.616 1.879-2.292 2.345-2.292 0.754 0 1.799 1.036 3.306 2.617 2.471 2.592 5.855 6.142 11.583 6.142 5.654 0 9.158-3.364 11.716-5.82 1.19-1.142 2.539-2.437 3.253-2.437 1.354 0 1.912 0.48 3.708 2.534 1.994 2.278 5.008 5.723 10.648 5.723 5.864 0 9.191-3.748 11.393-6.229 0.632-0.713 1.908-2.194 2.285-2.194 0.063 0 22.225 12.688 22.225 12.871 0 0.021 0 0.046 0 0.067V368.214zM444 196.601c-1 0.094-1.334 0.155-1.914 0.155-0.34 0-0.617-0.022-0.771-0.045-0.132-0.149-0.304-0.328-0.431-0.477-1.797-2.1-5.544-6.469-12.024-6.469-0.699 0-1.465 0.053-2.184 0.156-2.587 0.19-4.677 2.349-4.677 4.984v1.173c-8-4.072-19.194-8.95-22.229-8.95-4.872 0-7.701 3.211-9.782 5.556-1.972 2.222-2.714 2.867-3.903 2.867-0.948 0-1.38-0.323-3.117-2.309-2.073-2.368-5.202-5.948-11.231-5.948-4.737 0-7.881 3.019-10.177 5.223-2.198 2.109-3.314 3.034-4.791 3.034-1.308 0-2.328-0.927-4.345-3.042-2.3-2.413-5.449-5.717-10.543-5.717-5.396 0-8.288 3.675-10.202 6.106-1.736 2.206-2.268 2.652-3.159 2.652-1.257 0-2.282-0.936-4.319-3.071-2.291-2.4-5.427-5.688-10.398-5.688-5.086 0-8.341 3.431-10.717 5.935-1.194 1.259-2.679 2.824-3.477 2.824-0.977 0-2.396-1.411-3.769-2.775-2.254-2.241-5.341-5.31-9.929-5.31-4.558 0-7.612 2.937-10.067 5.296-1.36 1.307-2.902 2.789-3.818 2.789-0.435 0-1.217-0.86-2.273-2.076-2.08-2.393-5.222-6.009-11.008-6.009-5.321 0-9.008 3.144-11.7 5.439-1.595 1.36-3.102 2.646-4.109 2.646-0.921 0-2.728-2.032-3.923-3.376-2.266-2.549-5.086-5.72-9.356-5.72-4.153 0-7.149 3.011-9.793 5.667-1.16 1.165-3.317 3.333-4.129 3.433-0.615-0.156-2.067-1.798-2.934-2.778-2.295-2.595-5.439-6.149-10.386-6.149-4.6 0-7.792 3.093-10.356 5.578-1.698 1.645-3.453 3.346-4.779 3.346-0.705 0-1.354-0.647-2.946-2.594-2.063-2.521-5.18-6.33-10.843-6.33-5.592 0-8.794 3.753-10.913 6.237-1.72 2.016-2.425 2.687-3.212 2.687-0.955 0-1.809-0.829-3.53-2.723-2.252-2.478-5.337-5.871-10.632-5.871-5.174 0-8.293 3.281-10.571 5.677-1.97 2.073-2.901 2.917-4.19 2.917-1.256 0-2.254-0.93-4.232-3.053-2.309-2.478-5.471-5.871-10.672-5.871-5.425 0-8.792 3.646-11.25 6.308-0.832 0.9-19.126 4.259-19.633 4.415 0-1.902-1.08-3.641-2.786-4.482-1.705-0.844-3.742-0.646-5.253 0.512-0.849 0.65-2.615 1.123-3.808 1.003-2.32-0.222-3.81-2.134-4.81-3.219v-11.951L78.276 135h355.815L444 179.557V196.601z" fill="#81ffd9" data-fill-palette-color="accent"></path></g></svg></g></svg></g></svg></g></svg></g><g></g></svg></g><defs></defs></svg><rect width="250.88217201147827" height="247.2" fill="none" stroke="none" visibility="hidden"></rect></g></svg></g></svg>